<?xml version="1.0" standalone="no"?>
<!DOCTYPE svg PUBLIC "-//W3C//DTD SVG 1.1//EN"
"http://www.w3.org/Graphics/SVG/1.1/DTD/svg11.dtd">

<svg width="820" height="374" view_box="0 0 820 374"
xmlns="http://www.w3.org/2000/svg"
xmlns:link="http://www.w3.org/1999/xlink">\n\n<desc>Généré par Mocodo 2.3.7 le Fri, 28 Feb 2020 08:14:46</desc>

<rect id="frame" x="0" y="0" width="820" height="374" fill="#ffffff" stroke="none" stroke-width="0"/>

<!-- Association DF1 -->
<line x1="298" y1="187" x2="387" y2="60" stroke="#d6604d" stroke-width="2"/>
<text x="294.858050796" y="154" fill="#4d4d4d" font-family="Verdana" font-size="12">1,1</text>
<line x1="487" y1="60" x2="387" y2="60" stroke="#d6604d" stroke-width="2"/>
<text x="409" y="77.0" fill="#4d4d4d" font-family="Verdana" font-size="12">1,1</text>
<line x1="409" y1="79.0" x2="430" y2="79.0" stroke="#4d4d4d" stroke-width="1"/>
<g id="association-DF1">
	<circle cx="387" cy="60" r="16" stroke="#d6604d" stroke-width="2" fill="#f4a582"/>
	<text x="378" y="64.0" fill="#000000" font-family="Verdana" font-size="12">DF</text>
</g>

<!-- Association DF3 -->
<line x1="298" y1="187" x2="387" y2="314" stroke="#d6604d" stroke-width="2"/>
<text x="294.858050796" y="229" fill="#4d4d4d" font-family="Verdana" font-size="12">1,1</text>
<line x1="487" y1="314" x2="387" y2="314" stroke="#d6604d" stroke-width="2"/>
<text x="420" y="331.0" fill="#4d4d4d" font-family="Verdana" font-size="12">1,1</text>
<line x1="420" y1="333.0" x2="441" y2="333.0" stroke="#4d4d4d" stroke-width="1"/>
<g id="association-DF3">
	<circle cx="387" cy="314" r="16" stroke="#d6604d" stroke-width="2" fill="#f4a582"/>
	<text x="378" y="318.0" fill="#000000" font-family="Verdana" font-size="12">DF</text>
</g>

<!-- Association DF2 -->
<line x1="298" y1="187" x2="387" y2="187" stroke="#d6604d" stroke-width="2"/>
<text x="344" y="204.0" fill="#4d4d4d" font-family="Verdana" font-size="12">1,1</text>
<line x1="487" y1="187" x2="387" y2="187" stroke="#d6604d" stroke-width="2"/>
<text x="420" y="204.0" fill="#4d4d4d" font-family="Verdana" font-size="12">1,1</text>
<line x1="420" y1="206.0" x2="441" y2="206.0" stroke="#4d4d4d" stroke-width="1"/>
<g id="association-DF2">
	<circle cx="387" cy="187" r="16" stroke="#d6604d" stroke-width="2" fill="#f4a582"/>
	<text x="378" y="191.0" fill="#000000" font-family="Verdana" font-size="12">DF</text>
</g>

<!-- Association BORROWLOG -->
<line x1="53" y1="187" x2="177" y2="187" stroke="#d6604d" stroke-width="2"/>
<text x="102" y="204.0" fill="#4d4d4d" font-family="Verdana" font-size="12">0,n</text>
<line x1="298" y1="187" x2="177" y2="187" stroke="#d6604d" stroke-width="2"/>
<text x="231" y="204.0" fill="#4d4d4d" font-family="Verdana" font-size="12">0,n</text>
<g id="association-BORROWLOG">
	<path d="M 211 153 a 14 14 90 0 1 14 14 V 178 h -96 V 167 a 14 14 90 0 1 14 -14" fill="#f4a582" stroke="#f4a582" stroke-width="0"/>
	<path d="M 225 178.0 v 29 a 14 14 90 0 1 -14 14 H 143 a 14 14 90 0 1 -14 -14 V 178.0 H 96" fill="#fddbc7" stroke="#fddbc7" stroke-width="0"/>
	<rect x="129" y="153" width="96" height="68" fill="none" rx="14" stroke="#d6604d" stroke-width="2"/>
	<line x1="129" y1="178" x2="225" y2="178" stroke="#d6604d" stroke-width="1"/>
	<text x="136" y="170.7" fill="#000000" font-family="Verdana" font-size="12">BORROWLOG</text>
	<text x="136" y="195.8" fill="#000000" font-family="Verdana" font-size="12">borrowedOn</text>
	<text x="136" y="212.8" fill="#000000" font-family="Verdana" font-size="12">returnedOn</text>
</g>

<!-- Association BELONG TO2 -->
<line x1="487" y1="187" x2="614" y2="187" stroke="#d6604d" stroke-width="2"/>
<text x="533" y="204.0" fill="#4d4d4d" font-family="Verdana" font-size="12">1,1</text>
<line x1="750" y1="187" x2="614" y2="187" stroke="#d6604d" stroke-width="2"/>
<text x="663" y="204.0" fill="#4d4d4d" font-family="Verdana" font-size="12">0,n</text>
<g id="association-BELONG TO2">
	<path d="M 643 162 a 14 14 90 0 1 14 14 V 187 h -86 V 176 a 14 14 90 0 1 14 -14" fill="#f4a582" stroke="#f4a582" stroke-width="0"/>
	<path d="M 657 187.0 v 11 a 14 14 90 0 1 -14 14 H 585 a 14 14 90 0 1 -14 -14 V 187.0 H 86" fill="#fddbc7" stroke="#fddbc7" stroke-width="0"/>
	<rect x="571" y="162" width="86" height="50" fill="none" rx="14" stroke="#d6604d" stroke-width="2"/>
	<line x1="571" y1="187" x2="657" y2="187" stroke="#d6604d" stroke-width="1"/>
	<text x="578" y="179.7" fill="#000000" font-family="Verdana" font-size="12">BELONG TO</text>
</g>

<!-- Association BELONG TO3 -->
<line x1="487" y1="314" x2="614" y2="314" stroke="#d6604d" stroke-width="2"/>
<text x="533" y="331.0" fill="#4d4d4d" font-family="Verdana" font-size="12">1,1</text>
<line x1="750" y1="314" x2="614" y2="314" stroke="#d6604d" stroke-width="2"/>
<text x="670" y="331.0" fill="#4d4d4d" font-family="Verdana" font-size="12">0,n</text>
<g id="association-BELONG TO3">
	<path d="M 643 289 a 14 14 90 0 1 14 14 V 314 h -86 V 303 a 14 14 90 0 1 14 -14" fill="#f4a582" stroke="#f4a582" stroke-width="0"/>
	<path d="M 657 314.0 v 11 a 14 14 90 0 1 -14 14 H 585 a 14 14 90 0 1 -14 -14 V 314.0 H 86" fill="#fddbc7" stroke="#fddbc7" stroke-width="0"/>
	<rect x="571" y="289" width="86" height="50" fill="none" rx="14" stroke="#d6604d" stroke-width="2"/>
	<line x1="571" y1="314" x2="657" y2="314" stroke="#d6604d" stroke-width="1"/>
	<text x="578" y="306.7" fill="#000000" font-family="Verdana" font-size="12">BELONG TO</text>
</g>

<!-- Association BELONG TO1 -->
<line x1="487" y1="60" x2="614" y2="60" stroke="#d6604d" stroke-width="2"/>
<text x="544" y="77.0" fill="#4d4d4d" font-family="Verdana" font-size="12">1,1</text>
<line x1="750" y1="60" x2="614" y2="60" stroke="#d6604d" stroke-width="2"/>
<text x="668" y="77.0" fill="#4d4d4d" font-family="Verdana" font-size="12">0,n</text>
<g id="association-BELONG TO1">
	<path d="M 643 35 a 14 14 90 0 1 14 14 V 60 h -86 V 49 a 14 14 90 0 1 14 -14" fill="#f4a582" stroke="#f4a582" stroke-width="0"/>
	<path d="M 657 60.0 v 11 a 14 14 90 0 1 -14 14 H 585 a 14 14 90 0 1 -14 -14 V 60.0 H 86" fill="#fddbc7" stroke="#fddbc7" stroke-width="0"/>
	<rect x="571" y="35" width="86" height="50" fill="none" rx="14" stroke="#d6604d" stroke-width="2"/>
	<line x1="571" y1="60" x2="657" y2="60" stroke="#d6604d" stroke-width="1"/>
	<text x="578" y="52.7" fill="#000000" font-family="Verdana" font-size="12">BELONG TO</text>
</g>

<!-- Entity MUSICALGENRE -->
<g id="entity-MUSICALGENRE">
	<g id="frame-MUSICALGENRE">
		<rect x="696" y="280" width="108" height="25" fill="#bababa" stroke="#bababa" stroke-width="0"/>
		<rect x="696" y="305.0" width="108" height="43" fill="#e0e0e0" stroke="#e0e0e0" stroke-width="0"/>
		<rect x="696" y="280" width="108" height="68" fill="none" stroke="#878787" stroke-width="2"/>
		<line x1="696" y1="305" x2="804" y2="305" stroke="#878787" stroke-width="1"/>
	</g>
	<text x="701" y="297.7" fill="#000000" font-family="Verdana" font-size="12">MUSICALGENRE</text>
	<text x="701" y="322.8" fill="#000000" font-family="Verdana" font-size="12">id</text>
	<line x1="701" y1="325" x2="713" y2="325" stroke="#000000" stroke-width="1"/>
	<text x="701" y="339.8" fill="#000000" font-family="Verdana" font-size="12">name</text>
</g>

<!-- Entity DVD -->
<g id="entity-DVD">
	<g id="frame-DVD">
		<rect x="446" y="136" width="82" height="25" fill="#bababa" stroke="#bababa" stroke-width="0"/>
		<rect x="446" y="161.0" width="82" height="77" fill="#e0e0e0" stroke="#e0e0e0" stroke-width="0"/>
		<rect x="446" y="136" width="82" height="102" fill="none" stroke="#878787" stroke-width="2"/>
		<line x1="446" y1="161" x2="528" y2="161" stroke="#878787" stroke-width="1"/>
	</g>
	<text x="473" y="153.7" fill="#000000" font-family="Verdana" font-size="12">DVD</text>
	<text x="451" y="178.7" fill="#000000" font-family="Verdana" font-size="12">id</text>
	<line x1="451" y1="181" x2="463" y2="181" style="fill:none;stroke:#000000;stroke-width:1;stroke-dasharray:4;"/>
	<text x="451" y="195.8" fill="#000000" font-family="Verdana" font-size="12">name</text>
	<text x="451" y="212.8" fill="#000000" font-family="Verdana" font-size="12">realisator</text>
	<text x="451" y="229.8" fill="#000000" font-family="Verdana" font-size="12">releaseYear</text>
</g>

<!-- Entity BIBLIOUSER -->
<g id="entity-BIBLIOUSER">
	<g id="frame-BIBLIOUSER">
		<rect x="9" y="128" width="88" height="25" fill="#bababa" stroke="#bababa" stroke-width="0"/>
		<rect x="9" y="153.0" width="88" height="93" fill="#e0e0e0" stroke="#e0e0e0" stroke-width="0"/>
		<rect x="9" y="128" width="88" height="118" fill="none" stroke="#878787" stroke-width="2"/>
		<line x1="9" y1="153" x2="97" y2="153" stroke="#878787" stroke-width="1"/>
	</g>
	<text x="14" y="145.7" fill="#000000" font-family="Verdana" font-size="12">BIBLIOUSER</text>
	<text x="14" y="170.7" fill="#000000" font-family="Verdana" font-size="12">id</text>
	<line x1="14" y1="173" x2="26" y2="173" stroke="#000000" stroke-width="1"/>
	<text x="14" y="187.8" fill="#000000" font-family="Verdana" font-size="12">username</text>
	<text x="14" y="204.8" fill="#000000" font-family="Verdana" font-size="12">password</text>
	<text x="14" y="221.8" fill="#000000" font-family="Verdana" font-size="12">email</text>
	<text x="14" y="238.8" fill="#000000" font-family="Verdana" font-size="12">isAdmin</text>
</g>

<!-- Entity CINEMATICGENRE -->
<g id="entity-CINEMATICGENRE">
	<g id="frame-CINEMATICGENRE">
		<rect x="689" y="153" width="122" height="25" fill="#bababa" stroke="#bababa" stroke-width="0"/>
		<rect x="689" y="178.0" width="122" height="43" fill="#e0e0e0" stroke="#e0e0e0" stroke-width="0"/>
		<rect x="689" y="153" width="122" height="68" fill="none" stroke="#878787" stroke-width="2"/>
		<line x1="689" y1="178" x2="811" y2="178" stroke="#878787" stroke-width="1"/>
	</g>
	<text x="694" y="170.7" fill="#000000" font-family="Verdana" font-size="12">CINEMATICGENRE</text>
	<text x="694" y="195.8" fill="#000000" font-family="Verdana" font-size="12">id</text>
	<line x1="694" y1="198" x2="706" y2="198" stroke="#000000" stroke-width="1"/>
	<text x="694" y="212.8" fill="#000000" font-family="Verdana" font-size="12">name</text>
</g>

<!-- Entity CD -->
<g id="entity-CD">
	<g id="frame-CD">
		<rect x="446" y="263" width="82" height="25" fill="#bababa" stroke="#bababa" stroke-width="0"/>
		<rect x="446" y="288.0" width="82" height="77" fill="#e0e0e0" stroke="#e0e0e0" stroke-width="0"/>
		<rect x="446" y="263" width="82" height="102" fill="none" stroke="#878787" stroke-width="2"/>
		<line x1="446" y1="288" x2="528" y2="288" stroke="#878787" stroke-width="1"/>
	</g>
	<text x="477" y="280.7" fill="#000000" font-family="Verdana" font-size="12">CD</text>
	<text x="451" y="305.7" fill="#000000" font-family="Verdana" font-size="12">id</text>
	<line x1="451" y1="308" x2="463" y2="308" style="fill:none;stroke:#000000;stroke-width:1;stroke-dasharray:4;"/>
	<text x="451" y="322.8" fill="#000000" font-family="Verdana" font-size="12">name</text>
	<text x="451" y="339.8" fill="#000000" font-family="Verdana" font-size="12">releasedBy</text>
	<text x="451" y="356.8" fill="#000000" font-family="Verdana" font-size="12">releaseYear</text>
</g>

<!-- Entity BOOK -->
<g id="entity-BOOK">
	<g id="frame-BOOK">
		<rect x="435" y="9" width="104" height="25" fill="#bababa" stroke="#bababa" stroke-width="0"/>
		<rect x="435" y="34.0" width="104" height="77" fill="#e0e0e0" stroke="#e0e0e0" stroke-width="0"/>
		<rect x="435" y="9" width="104" height="102" fill="none" stroke="#878787" stroke-width="2"/>
		<line x1="435" y1="34" x2="539" y2="34" stroke="#878787" stroke-width="1"/>
	</g>
	<text x="469" y="26.7" fill="#000000" font-family="Verdana" font-size="12">BOOK</text>
	<text x="440" y="51.7" fill="#000000" font-family="Verdana" font-size="12">id</text>
	<line x1="440" y1="54" x2="452" y2="54" style="fill:none;stroke:#000000;stroke-width:1;stroke-dasharray:4;"/>
	<text x="440" y="68.8" fill="#000000" font-family="Verdana" font-size="12">name</text>
	<text x="440" y="85.8" fill="#000000" font-family="Verdana" font-size="12">author</text>
	<text x="440" y="102.8" fill="#000000" font-family="Verdana" font-size="12">publicationYear</text>
</g>

<!-- Entity LITERARYGENRE -->
<g id="entity-LITERARYGENRE">
	<g id="frame-LITERARYGENRE">
		<rect x="694" y="26" width="112" height="25" fill="#bababa" stroke="#bababa" stroke-width="0"/>
		<rect x="694" y="51.0" width="112" height="43" fill="#e0e0e0" stroke="#e0e0e0" stroke-width="0"/>
		<rect x="694" y="26" width="112" height="68" fill="none" stroke="#878787" stroke-width="2"/>
		<line x1="694" y1="51" x2="806" y2="51" stroke="#878787" stroke-width="1"/>
	</g>
	<text x="699" y="43.7" fill="#000000" font-family="Verdana" font-size="12">LITERARYGENRE</text>
	<text x="699" y="68.8" fill="#000000" font-family="Verdana" font-size="12">id</text>
	<line x1="699" y1="71" x2="711" y2="71" stroke="#000000" stroke-width="1"/>
	<text x="699" y="85.8" fill="#000000" font-family="Verdana" font-size="12">name</text>
</g>

<!-- Entity DOCUMENT -->
<g id="entity-DOCUMENT">
	<g id="frame-DOCUMENT">
		<rect x="257" y="162" width="82" height="25" fill="#bababa" stroke="#bababa" stroke-width="0"/>
		<rect x="257" y="187.0" width="82" height="25" fill="#e0e0e0" stroke="#e0e0e0" stroke-width="0"/>
		<rect x="257" y="162" width="82" height="50" fill="none" stroke="#878787" stroke-width="2"/>
		<line x1="257" y1="187" x2="339" y2="187" stroke="#878787" stroke-width="1"/>
	</g>
	<text x="262" y="179.7" fill="#000000" font-family="Verdana" font-size="12">DOCUMENT</text>
	<text x="262" y="204.8" fill="#000000" font-family="Verdana" font-size="12">id</text>
	<line x1="262" y1="207" x2="274" y2="207" stroke="#000000" stroke-width="1"/>
</g>
</svg>